# xmcd
#
# Track frame offsets:
#	150
#	13047
#	29525
#	43213
#	58922
#	73513
#	97603
#	112208
#	126651
#	141538
#	156054
#	171371
#	186572
#	202316
#	218102
#	232946
#	250360
#	265165
#	280328
#
# Disc length: 3996 seconds
#
# Revision: 0
# Processed by: cddbd v1.4PL0 Copyright (c) Steve Scherf et al.
# Submitted via: dBpowerAMP V4.0
#
DISCID=340f9a13
DTITLE=T M Sounderarajan and P Suseela - Love Duets(Tamil)
DYEAR=2003
DGENRE=Country
TTITLE0=Chinna Chinna Kannanukku (Kaattu Roja 1963)
TTITLE1=Pattilum Melliya Poovidhu (Gnayirum Thingalum 1967)
TTITLE2=Manadhil Enna Mayakkam (Ezhai Pangalan 1963)
TTITLE3=Kalakalakkuthu Kaathu (Valar Pirai 1962)
TTITLE4=Azhzgu Sirikkindrathu (Iruvar Ullam 1963)
TTITLE5=Manam Kanivana (Ithu Satthiyam 1963)
TTITLE6=Seerulaavum Inbanatham (Vadivukku Valaikaappu 1962)
TTITLE7=Muthama Aasai (Vilakketriyaval 1963)
TTITLE8=Chandiranai Kaanaamal (Kulamagal Radhai 1963)
TTITLE9=Enadhu Raja Sabaiyile (Kalaivaniyin Kanavan 1963)
TTITLE10=Nadhi Enge Pogiradhu (Iruvar Ullam 1963)
TTITLE11=Vennila Vaanil (Mannippu 1969)
TTITLE12=Vaazha Ninaithathal (Bale Pandiya 1962)
TTITLE13=Kodi Asaindhadhum (Parthal Pasi Theerum 1962)
TTITLE14=Unakka Theriyadhu (Kalyaniyin Kanavan 1963)
TTITLE15=Mayangivitten (Annamittakai 1972)
TTITLE16=Ivaloru Azhagiya Poonchittu (Kadhal Padutthum Paadu 1966)
TTITLE17=Chinnappennorutthi (Athey Kanngal 1967)
TTITLE18=Andha Maappillai (Panam Padaitthavan (1965)
EXTD=Saregama India CD
EXTT0=
EXTT1=
EXTT2=
EXTT3=
EXTT4=
EXTT5=
EXTT6=
EXTT7=
EXTT8=
EXTT9=
EXTT10=
EXTT11=
EXTT12=
EXTT13=
EXTT14=
EXTT15=
EXTT16=
EXTT17=
EXTT18=
PLAYORDER=
